<?xml version="1.0" standalone="no"?>
<!DOCTYPE svg PUBLIC "-//W3C//DTD SVG 20010904//EN"
 "http://www.w3.org/TR/2001/REC-SVG-20010904/DTD/svg10.dtd">
<svg version="1.0" xmlns="http://www.w3.org/2000/svg"
 width="2048.000000pt" height="2048.000000pt" viewBox="0 0 2048.000000 2048.000000"
 preserveAspectRatio="xMidYMid meet">
<metadata>
Created by potrace 1.14, written by Peter Selinger 2001-2017
</metadata>
<g transform="translate(0.000000,2048.000000) scale(0.100000,-0.100000)"
fill="#000000" stroke="none">
<path d="M0 10240 l0 -10240 10240 0 10240 0 0 10240 0 10240 -10240 0 -10240
0 0 -10240z m10530 1298 c0 -7 -3 -24 -7 -36 -4 -18 -8 -20 -14 -10 -14 22
-10 58 6 58 8 0 15 -6 15 -12z m107 -10 c-3 -8 -6 -5 -6 6 -1 11 2 17 5 13 3
-3 4 -12 1 -19z m-31 -45 c-4 -4 -11 -1 -16 7 -16 25 -11 35 7 17 9 -9 13 -20
9 -24z m257 -36 c-3 -15 -11 -27 -19 -27 -13 0 -12 37 3 80 8 24 22 -21 16
-53z m-213 21 c0 -5 -7 -8 -15 -8 -17 0 -18 2 -9 25 5 13 8 14 15 3 5 -7 9
-16 9 -20z m50 2 c0 -5 7 -10 17 -10 14 0 14 -2 -2 -20 -34 -37 -66 -21 -49
24 7 17 34 22 34 6z m-174 -33 c8 3 14 0 14 -7 0 -6 8 -22 18 -35 18 -22 20
-23 37 -7 10 9 15 11 11 4 -10 -16 20 -62 39 -62 9 0 21 11 27 25 6 14 15 25
20 25 11 0 10 -5 -7 -46 -26 -63 14 -99 53 -49 11 13 22 22 26 18 3 -3 0 -13
-6 -22 -8 -10 -4 -9 10 3 26 23 38 16 22 -13 -15 -28 -2 -26 30 4 23 22 29 24
39 11 10 -12 8 -21 -16 -51 -32 -39 -44 -45 -36 -15 6 21 -1 23 -28 12 -12 -6
-14 -14 -7 -40 8 -30 11 -32 47 -27 29 3 51 -2 85 -20 54 -28 88 -32 106 -10
7 8 24 15 37 15 23 0 25 -3 19 -35 -6 -31 -4 -35 13 -35 13 0 19 -5 15 -14
-10 -25 35 -31 57 -7 11 12 26 21 34 21 23 0 18 -9 -10 -20 -29 -11 -33 -30
-7 -30 10 0 22 -3 26 -7 4 -5 11 -8 14 -9 20 -2 70 -28 88 -45 19 -18 25 -19
68 -7 28 7 48 19 52 30 3 10 12 18 21 18 10 0 13 -6 9 -16 -4 -12 -1 -14 14
-9 15 5 20 2 20 -12 0 -24 -29 -65 -40 -58 -12 7 -50 -12 -50 -26 0 -5 11 -7
28 -3 24 7 26 6 14 -9 -17 -20 -6 -41 17 -31 41 17 116 44 123 44 4 0 4 -8 1
-17 -6 -14 -2 -13 21 5 28 22 56 29 56 15 0 -4 -23 -31 -52 -60 -55 -55 -53
-65 7 -36 51 24 68 4 27 -32 -26 -23 -29 -30 -19 -46 9 -14 8 -22 -6 -37 -40
-44 1 -57 62 -20 27 17 32 24 19 26 -50 10 23 142 78 142 22 0 24 -2 13 -22
-6 -13 -20 -31 -30 -41 -11 -10 -19 -24 -19 -31 0 -21 39 -7 57 20 10 16 25
24 45 24 27 0 28 -2 17 -22 -7 -13 -11 -25 -8 -28 2 -3 -22 -12 -53 -20 -73
-19 -82 -30 -27 -30 25 0 50 5 57 12 16 16 15 8 -2 -33 -9 -21 -26 -39 -46
-47 -21 -10 -29 -19 -26 -30 4 -12 -5 -23 -27 -35 l-32 -19 24 -20 c14 -10 37
-22 53 -25 15 -3 28 -9 28 -12 0 -14 -76 -46 -109 -46 -19 0 -36 -6 -38 -12
-3 -7 2 -13 11 -13 9 0 16 -4 16 -10 0 -5 -9 -10 -21 -10 -12 0 -19 -5 -16
-12 2 -8 18 -12 39 -10 26 2 37 -2 42 -14 8 -21 -3 -56 -21 -69 -13 -10 -13
-13 1 -24 24 -20 19 -31 -13 -31 -16 0 -34 -7 -41 -15 -10 -13 -9 -15 9 -15
16 0 21 -6 21 -25 0 -20 5 -25 26 -25 18 0 25 -4 21 -14 -8 -20 23 -45 64 -52
28 -4 31 -3 16 6 -26 16 -11 30 32 30 22 0 44 6 51 15 7 9 29 15 54 15 l41 0
-29 -23 c-33 -27 -31 -57 4 -57 12 0 18 -4 15 -10 -3 -5 -17 -10 -29 -10 -13
0 -30 -7 -37 -16 -12 -15 -11 -16 11 -9 22 7 23 6 12 -8 -8 -9 -11 -21 -7 -26
7 -12 -27 -2 -35 10 -3 4 -14 1 -25 -7 -17 -13 -18 -16 -5 -25 11 -8 5 -9 -22
-5 -21 2 -40 0 -43 -5 -12 -19 -71 -9 -94 15 -21 22 -25 23 -49 10 -39 -20
-56 -18 -117 17 -30 17 -69 31 -87 32 -26 2 -35 9 -55 47 -13 25 -28 49 -33
54 -6 6 -5 14 1 22 18 22 -1 37 -37 31 -39 -7 -43 2 -14 28 11 10 20 24 20 30
0 16 -42 27 -65 19 -14 -6 -16 -1 -14 22 4 39 -26 70 -63 66 -35 -4 -36 -18
-2 -26 35 -9 25 -30 -15 -34 l-33 -3 27 -29 c23 -24 25 -31 16 -49 -7 -12 -17
-21 -23 -21 -6 0 -5 -6 3 -16 12 -14 9 -20 -16 -40 -17 -13 -26 -24 -21 -24 5
0 3 -7 -4 -15 -7 -8 -21 -15 -31 -15 -23 0 -25 -19 -3 -34 10 -8 18 -34 21
-74 5 -58 5 -62 -16 -62 -24 0 -27 -10 -9 -28 10 -10 10 -17 0 -33 -11 -17
-11 -25 3 -45 9 -14 13 -33 10 -44 -5 -16 -2 -20 15 -20 26 0 46 -40 32 -66
-8 -15 -5 -23 14 -41 13 -12 27 -36 30 -53 8 -37 18 -38 48 -5 13 14 30 25 39
25 9 0 19 5 22 10 3 6 19 10 36 10 21 0 29 -5 29 -18 0 -20 64 -85 93 -95 12
-5 16 -3 11 4 -4 6 0 15 7 20 11 7 12 12 1 26 -6 10 -16 27 -21 38 -15 35 -39
49 -56 35 -20 -16 -45 -6 -45 19 0 13 8 21 23 23 14 2 21 9 19 19 -3 20 23 43
38 34 6 -3 8 -11 4 -16 -3 -6 1 -16 10 -22 9 -7 23 -30 30 -52 11 -31 19 -40
37 -40 16 0 25 7 29 25 7 28 38 39 88 32 25 -4 32 -1 32 12 0 9 7 16 16 16 13
0 12 5 -5 34 -12 18 -21 38 -21 44 0 19 52 73 69 71 43 -4 63 2 68 21 6 24 7
24 66 2 67 -26 73 -33 58 -81 -9 -32 -9 -45 1 -61 16 -25 58 -27 59 -2 2 30 4
36 23 90 11 28 24 52 29 52 18 0 87 -79 81 -94 -4 -10 5 -19 28 -29 44 -18 67
-45 48 -57 -11 -7 -10 -14 4 -44 13 -28 14 -40 6 -56 -6 -12 -8 -30 -5 -40 15
-48 -23 -81 -45 -39 -6 11 -32 29 -57 40 -31 13 -43 24 -40 33 7 17 -16 40
-27 28 -4 -4 -13 -7 -19 -7 -7 0 -12 -7 -12 -15 0 -10 -8 -14 -22 -12 -24 3
-27 -1 -37 -40 -5 -24 -2 -28 38 -44 30 -13 42 -23 39 -34 -3 -10 9 -25 31
-41 39 -26 45 -39 20 -39 -12 0 -15 -6 -10 -26 6 -21 4 -25 -8 -21 -10 4 -16
1 -16 -8 0 -20 -15 -19 -35 1 -10 11 -12 20 -6 28 25 30 -25 108 -84 130 -17
6 -17 4 5 -19 l24 -25 -30 5 c-33 6 -49 -2 -58 -30 -4 -16 6 -32 44 -69 28
-27 50 -54 50 -61 0 -23 -51 -28 -79 -8 -31 23 -150 67 -158 59 -3 -3 0 -13 7
-21 11 -13 11 -20 0 -40 -11 -20 -18 -23 -39 -18 -14 3 -35 14 -47 24 -27 25
-34 24 -34 -6 0 -20 -5 -25 -25 -25 -14 0 -25 -2 -25 -5 0 -13 107 -105 132
-114 16 -6 28 -9 28 -7 0 2 -13 20 -30 41 -37 46 -38 65 -5 65 43 0 86 -61 53
-73 -10 -4 -10 -7 0 -18 6 -7 12 -23 12 -35 0 -12 12 -37 26 -54 36 -42 24
-49 -12 -8 -60 68 -125 110 -110 73 7 -20 -18 -19 -35 2 -8 9 -39 34 -69 56
l-54 41 29 9 29 10 -53 24 c-51 22 -54 22 -67 6 -12 -17 -14 -17 -44 0 -38 23
-48 17 -26 -15 21 -30 20 -41 -3 -28 -26 14 -78 13 -87 -2 -4 -6 7 -22 26 -38
18 -15 31 -32 29 -39 -5 -15 -99 64 -99 84 0 7 -7 18 -15 25 -20 16 -19 11 5
-44 10 -25 26 -46 34 -46 21 0 28 -29 11 -53 -21 -30 -19 -54 8 -87 12 -15 30
-42 39 -59 9 -17 22 -31 28 -31 15 0 12 32 -6 58 -22 32 -9 41 15 11 40 -48
35 -109 -8 -94 -10 4 -12 0 -6 -17 15 -48 17 -78 6 -78 -16 0 -13 -38 6 -71
18 -30 11 -51 -9 -31 -18 18 -31 14 -25 -8 3 -11 2 -20 -2 -20 -12 0 -42 36
-35 43 8 7 -34 67 -46 67 -11 0 -1 -60 13 -77 7 -9 5 -13 -7 -13 -8 0 -25 17
-35 39 -12 22 -30 41 -43 44 -13 4 -45 27 -71 53 -51 48 -71 55 -37 11 11 -14
20 -34 20 -45 0 -28 -38 -72 -63 -72 -34 0 -50 -15 -43 -38 4 -12 1 -33 -8
-49 -13 -24 -15 -25 -16 -7 0 11 -7 29 -15 40 -14 18 -14 17 -15 -12 0 -22 10
-41 35 -67 40 -41 40 -43 21 -63 -20 -20 -23 -18 -30 20 -8 41 -28 60 -56 51
-11 -3 -20 -2 -20 3 0 5 -9 12 -20 15 -17 4 -20 0 -21 -31 -1 -21 0 -47 1 -60
3 -38 -20 -96 -49 -122 -16 -14 -34 -35 -40 -48 -7 -12 -16 -20 -21 -17 -5 3
-11 1 -15 -5 -4 -6 -13 -5 -25 2 -15 9 -24 9 -44 -1 -21 -12 -31 -12 -63 0
-35 14 -39 13 -58 -7 -21 -23 -85 -41 -85 -24 0 21 -16 9 -27 -20 -14 -37 -38
-47 -62 -26 -10 9 -23 16 -29 16 -7 0 -12 7 -12 15 0 8 5 14 12 13 6 -2 14 6
16 16 3 14 0 17 -12 13 -10 -4 -19 -1 -22 8 -9 24 -22 17 -26 -12 -4 -25 -5
-26 -12 -8 -4 11 -12 28 -17 37 -5 10 -9 42 -9 72 0 45 -3 54 -20 59 -14 3
-21 17 -26 46 -7 43 -18 59 -29 41 -12 -19 -14 -51 -5 -75 5 -13 5 -35 0 -52
-4 -15 -9 -22 -9 -14 -1 10 -10 12 -36 7 -31 -6 -35 -4 -35 14 0 31 28 92 39
86 5 -4 12 -2 15 3 10 16 -13 23 -27 9 -7 -7 -24 -36 -37 -65 l-23 -52 -51 5
c-91 9 -104 25 -98 119 3 58 -28 92 -54 58 -12 -17 -13 -17 -19 0 -4 9 -13 17
-21 17 -17 0 -17 5 -3 31 8 15 7 24 -2 35 -10 12 -15 10 -30 -16 -10 -16 -24
-30 -30 -30 -18 0 -48 42 -55 78 -7 37 -11 38 -36 15 -12 -11 -18 -12 -18 -3
0 8 -8 10 -22 7 -26 -6 -51 9 -61 36 -6 15 -15 18 -42 14 -33 -5 -34 -4 -20
16 21 30 19 37 -10 37 -26 0 -35 24 -12 33 7 3 5 6 -5 6 -22 1 -24 45 -3 81
20 34 18 42 -5 35 -28 -9 -49 10 -42 38 5 22 5 22 -22 -2 -24 -22 -27 -23 -39
-9 -6 9 -23 18 -36 20 -31 4 -47 51 -26 81 7 10 11 26 8 33 -3 8 0 14 6 14 6
0 11 -4 11 -10 0 -19 16 -10 34 21 10 17 16 32 14 34 -2 2 -24 -3 -48 -12 -87
-30 -109 -33 -115 -12 -4 10 -3 23 0 29 3 5 3 10 -2 10 -4 0 -16 7 -26 15 -21
15 -12 40 13 40 8 0 15 5 15 10 0 6 11 27 24 48 27 43 23 56 -10 33 -21 -14
-24 -14 -40 0 -19 17 -43 10 -35 -11 2 -7 -6 -22 -18 -34 -26 -25 -36 -26 -36
-7 0 9 -7 12 -20 9 -17 -5 -20 0 -20 28 0 20 8 42 22 56 18 19 19 23 5 23 -14
0 -12 6 9 38 14 20 36 43 50 50 13 7 24 15 24 18 0 2 -9 0 -19 -6 -28 -15 -51
-12 -51 6 0 11 -6 14 -22 9 -17 -6 -20 -4 -14 10 5 15 2 17 -24 12 -22 -5 -30
-3 -30 8 0 8 7 15 15 15 14 0 14 3 0 30 -9 17 -22 30 -30 30 -9 0 -12 9 -10
29 3 24 0 30 -18 33 -20 3 -19 6 13 26 19 12 29 22 23 22 -43 0 20 48 67 52
24 2 30 6 27 20 -5 19 8 25 17 9 9 -14 45 -1 73 25 20 19 22 24 9 24 -19 0
-21 11 -4 28 9 9 9 15 0 24 -17 17 -15 45 3 52 17 6 21 36 5 36 -6 0 -13 -7
-16 -15 -4 -8 -14 -15 -23 -15 -11 0 -4 11 22 35 44 42 46 53 10 61 -51 11
-59 18 -25 22 36 4 42 17 11 25 -12 3 -20 13 -19 24 4 31 1 36 -15 23 -16 -13
-39 -4 -29 11 3 6 -4 13 -16 16 -12 3 -26 16 -31 29 -4 13 -15 24 -23 24 -7 0
-16 7 -20 15 -3 8 -12 15 -21 15 -8 0 -15 5 -15 10 0 13 16 12 73 -5 26 -8 47
-10 47 -5 0 6 16 16 35 24 44 19 45 30 2 33 -31 3 -61 28 -52 44 3 4 -4 10
-15 14 -11 3 -20 11 -20 16 0 16 32 10 46 -8 11 -14 15 -15 22 -5 5 7 15 12
23 10 8 -2 14 4 14 12 0 8 -9 15 -20 16 -45 1 -78 34 -35 34 18 0 19 3 10 20
-9 17 -8 20 13 20 19 0 26 7 31 30 5 27 9 30 33 24 20 -4 24 -3 14 4 -20 14
-2 35 26 29 15 -3 22 0 20 7 -21 50 -21 49 5 43 20 -5 27 -3 31 13 3 11 13 20
22 20 13 0 16 6 13 25 -4 19 -1 25 13 25 11 0 19 4 19 9 0 5 11 12 25 15 16 4
25 13 25 26 0 10 5 22 10 25 6 3 10 15 10 26 0 24 14 24 48 0 34 -25 92 -18
92 10 0 15 11 19 58 25 58 6 58 6 59 40 1 45 27 69 77 70 56 1 82 17 90 56 5
24 9 29 18 20 7 -7 31 -12 55 -12 36 0 45 -4 53 -22 9 -22 9 -22 9 3 1 27 -20
54 -32 42 -4 -3 -13 -1 -21 6 -8 6 -19 10 -26 9 -7 -2 -15 3 -17 10 -3 8 8 12
36 12 23 0 41 4 41 9 0 5 9 11 20 14 24 6 37 52 20 72 -18 22 -33 18 -27 -6 7
-27 -20 -22 -39 7 -13 18 -12 24 9 47 17 20 26 24 34 16 6 -6 21 -8 33 -4 17
6 20 12 15 36 -10 43 21 38 39 -6 20 -48 30 -44 22 10 -6 37 -4 45 8 45 9 0
16 -6 16 -14 0 -8 5 -18 12 -22 8 -5 9 -2 5 9 -7 20 1 47 14 47 5 0 9 -11 9
-25 0 -27 1 -27 113 -10 15 3 27 0 27 -6 0 -6 5 -7 10 -4 6 3 7 18 4 32 -6 23
-5 25 12 18 10 -4 31 -10 46 -12 20 -4 28 -12 30 -31 2 -20 15 -33 45 -50 38
-21 46 -22 70 -10 15 7 40 31 56 54 l29 41 -21 34 c-15 25 -17 35 -8 41 7 4
13 2 15 -7 2 -8 10 -11 18 -8z m288 -8 c-6 -11 -24 -2 -24 11 0 5 7 7 15 4 8
-4 12 -10 9 -15z m-44 1 c0 -5 -7 -10 -16 -10 -8 0 -12 5 -9 10 3 6 10 10 16
10 5 0 9 -4 9 -10z m160 -14 c0 -24 -26 -38 -40 -22 -6 9 -9 20 -5 26 9 15 45
12 45 -4z m-178 -58 c-6 -6 -15 -8 -19 -4 -4 4 -1 11 7 16 19 12 27 3 12 -12z
m723 -108 c-3 -5 -10 -10 -16 -10 -5 0 -9 5 -9 10 0 6 7 10 16 10 8 0 12 -4 9
-10z m-222 -82 c-7 -43 -19 -56 -17 -20 2 45 4 52 14 52 5 0 7 -14 3 -32z
m258 -249 c-13 -11 -27 -17 -30 -13 -7 7 28 34 43 34 6 -1 0 -10 -13 -21z
m-2086 -19 c3 -5 1 -10 -4 -10 -6 0 -11 5 -11 10 0 6 2 10 4 10 3 0 8 -4 11
-10z m3 -38 c2 -7 -2 -10 -12 -6 -9 3 -16 11 -16 16 0 13 23 5 28 -10z m2317
9 c6 -10 -25 -31 -46 -31 -8 0 -5 7 6 20 20 22 31 25 40 11z m-105 -36 c-7 -8
-16 -12 -21 -9 -13 8 -1 24 18 24 13 0 13 -3 3 -15z m-2630 -489 c0 -8 -5 -18
-10 -21 -13 -8 -42 14 -34 26 9 15 44 10 44 -5z m2883 -40 c1 -5 -13 -10 -30
-11 -32 -3 -41 4 -26 19 10 9 53 3 56 -8z m-33 -76 c0 -5 -11 -10 -24 -10 -27
0 -44 -16 -24 -23 10 -3 10 -8 -1 -21 -24 -29 -107 6 -94 39 7 20 143 33 143
15z m326 -86 c-3 -8 1 -22 9 -30 8 -9 15 -20 15 -25 0 -12 -17 -11 -25 2 -4 6
-14 8 -22 4 -9 -3 -24 -3 -33 0 -17 5 -17 8 -3 35 10 22 22 30 40 30 19 0 24
-4 19 -16z m-916 -4 c13 -9 13 -12 -2 -23 -21 -17 -33 -63 -19 -71 15 -10 14
-36 -2 -36 -8 0 -24 11 -37 25 l-23 25 20 23 c11 12 24 32 28 45 7 24 13 26
35 12z m983 -115 c27 -3 53 -8 59 -12 23 -13 -28 -22 -102 -16 -62 5 -78 3
-89 -11 -13 -16 -111 -24 -111 -9 0 21 37 43 74 44 23 0 50 4 61 9 11 5 29 7
40 4 11 -3 42 -7 68 -9z m-358 -85 c3 -5 2 -10 -4 -10 -5 0 -13 5 -16 10 -3 6
-2 10 4 10 5 0 13 -4 16 -10z m-505 -30 c0 -5 -2 -10 -4 -10 -3 0 -8 5 -11 10
-3 6 -1 10 4 10 6 0 11 -4 11 -10z m204 -6 c3 -9 4 -20 0 -25 -10 -16 -22 -9
-26 16 -6 28 16 36 26 9z m-2589 -44 c-3 -5 -15 -10 -26 -10 -11 0 -17 5 -14
10 3 6 15 10 26 10 11 0 17 -4 14 -10z m2385 0 c0 -5 -7 -10 -15 -10 -8 0 -15
5 -15 10 0 6 7 10 15 10 8 0 15 -4 15 -10z m55 -60 c3 -6 -5 -10 -19 -10 -18
0 -24 -4 -20 -15 4 -9 0 -15 -10 -15 -17 0 -20 9 -10 34 7 18 49 22 59 6z
m663 -399 c3 -8 -1 -12 -9 -9 -7 2 -15 10 -17 17 -3 8 1 12 9 9 7 -2 15 -10
17 -17z m72 -1 c0 -5 -2 -10 -4 -10 -3 0 -8 5 -11 10 -3 6 -1 10 4 10 6 0 11
-4 11 -10z m-3160 -130 c0 -5 -4 -10 -10 -10 -5 0 -10 5 -10 10 0 6 5 10 10
10 6 0 10 -4 10 -10z m2482 -176 c4 -17 4 -30 -2 -32 -6 -2 -10 -15 -10 -28
l0 -25 -35 27 c-33 24 -48 64 -25 64 6 0 10 8 10 18 0 10 3 22 7 25 12 12 47
-19 55 -49z m165 -116 c16 -18 43 -43 59 -55 20 -15 24 -22 13 -22 -9 -1 -33
13 -54 29 -46 36 -49 37 -41 5 4 -14 2 -25 -3 -25 -15 0 -41 42 -41 66 0 45
26 45 67 2z m-130 5 c7 -10 23 -35 34 -56 l20 -38 -20 11 c-23 12 -45 43 -56
78 -8 26 2 29 22 5z m343 -64 c0 -6 -7 -6 -20 1 -11 6 -20 15 -20 21 0 6 7 6
20 -1 11 -6 20 -15 20 -21z m-465 -19 c-11 -18 16 -61 45 -71 16 -6 32 -19 35
-30 4 -11 24 -31 46 -44 38 -25 39 -26 37 -83 -1 -31 2 -66 6 -77 6 -15 1 -13
-18 8 -16 17 -26 40 -26 58 0 24 -6 32 -28 40 -16 5 -39 23 -51 39 -22 31 -51
40 -51 16 0 -7 11 -30 25 -50 13 -20 20 -36 15 -36 -11 0 -130 176 -130 192 0
5 12 0 26 -11 37 -29 46 -26 43 12 -4 60 -1 71 16 57 8 -7 13 -16 10 -20z
m284 0 c10 -5 21 -17 25 -25 4 -13 1 -15 -13 -10 -16 5 -19 2 -17 -19 1 -13
14 -40 27 -58 39 -51 42 -58 25 -58 -8 0 -29 12 -47 27 l-32 28 7 -44 7 -44
-25 17 c-22 14 -25 14 -20 1 10 -25 -4 -17 -41 23 -19 20 -35 45 -35 55 0 13
-5 17 -18 13 -12 -4 -26 1 -37 14 -10 11 -13 20 -7 20 6 0 14 -4 17 -10 3 -5
11 -10 16 -10 6 0 1 14 -11 31 -12 16 -20 33 -17 36 8 8 67 -29 67 -42 0 -7
11 -22 25 -35 31 -29 32 -18 3 23 l-22 31 24 -17 c30 -21 44 -22 36 -2 -3 9 4
26 17 40 26 28 24 27 46 15z m-2314 -90 c-3 -5 -15 -15 -26 -21 -19 -10 -20
-9 -9 10 6 12 18 21 26 21 8 0 12 -4 9 -10z m1962 -62 c26 -25 29 -38 8 -38
-8 0 -21 14 -30 30 -18 35 -10 38 22 8z m-1787 -98 c0 -37 -13 -39 -28 -5 -16
34 -15 35 8 35 16 0 20 -7 20 -30z m1794 -68 c19 -27 40 -62 46 -78 l10 -29
-30 35 c-16 19 -30 39 -30 43 0 5 -9 20 -20 34 -19 24 -26 43 -16 43 2 0 20
-22 40 -48z m-63 -47 c17 -36 41 -73 54 -83 25 -20 60 -92 44 -92 -5 0 -9 6
-9 14 0 8 -15 27 -33 43 -54 47 -121 183 -91 183 3 0 19 -29 35 -65z m186 43
c13 -12 23 -27 23 -35 0 -7 7 -21 16 -30 29 -34 65 -95 58 -102 -4 -3 -9 0
-11 6 -5 14 -40 57 -90 109 -18 19 -33 43 -33 54 0 26 8 25 37 -2z m-154 -28
c10 -16 15 -30 10 -30 -4 0 -16 14 -25 30 -9 17 -14 30 -10 30 4 0 16 -13 25
-30z m-163 -25 c0 -16 -27 -32 -37 -22 -3 4 -3 13 0 22 8 20 37 20 37 0z m449
-63 c11 -26 36 -72 55 -102 19 -30 32 -57 29 -60 -3 -3 -21 13 -40 35 -19 22
-41 39 -49 37 -8 -2 -14 2 -14 8 0 5 4 10 10 10 5 0 -2 22 -15 49 -14 27 -25
56 -25 65 0 29 28 5 49 -42z m-224 -10 c-10 -10 -45 21 -45 41 1 21 2 20 25
-8 13 -16 22 -31 20 -33z m-122 -12 c5 0 5 9 2 20 -11 33 12 22 35 -17 14 -23
18 -39 11 -41 -6 -2 -11 -13 -11 -24 0 -18 -1 -18 -16 -3 -15 15 -17 14 -30
-11 -12 -23 -12 -31 1 -57 31 -63 10 -60 -24 3 -23 44 -47 53 -37 16 l7 -27
-21 21 c-17 17 -23 18 -40 8 -23 -15 -25 -36 -7 -63 8 -11 16 -30 20 -43 10
-40 -21 -5 -55 62 -17 34 -46 75 -64 91 -24 21 -32 34 -25 44 7 11 13 10 35
-4 26 -17 26 -17 26 9 0 28 9 33 28 14 9 -9 12 -8 12 5 0 20 11 22 27 6 15
-15 33 -3 33 21 0 30 33 30 60 -2 14 -15 29 -28 33 -28z m217 24 c0 -8 -4 -12
-10 -9 -5 3 -10 10 -10 16 0 5 5 9 10 9 6 0 10 -7 10 -16z m274 -25 c32 -51
28 -62 -6 -17 -34 46 -41 58 -30 58 4 0 21 -19 36 -41z m-180 -74 c15 -20 18
-29 9 -32 -9 -3 -11 -14 -7 -30 5 -19 4 -24 -5 -19 -7 5 -11 18 -9 30 1 11 -5
32 -15 46 -34 49 -8 55 27 5z m-674 -91 c0 -8 -4 -12 -10 -9 -5 3 -10 13 -10
21 0 8 5 12 10 9 6 -3 10 -13 10 -21z m504 -20 c10 -39 1 -39 -23 -1 -26 42
-26 51 -2 38 10 -6 22 -22 25 -37z m-44 -26 c0 -11 -33 3 -47 20 -23 28 -14
33 17 10 17 -12 30 -25 30 -30z m104 16 c5 -14 4 -15 -9 -4 -17 14 -19 20 -6
20 5 0 12 -7 15 -16z m-514 -24 c0 -5 -2 -10 -4 -10 -3 0 -8 5 -11 10 -3 6 -1
10 4 10 6 0 11 -4 11 -10z m68 -15 c-3 -3 -9 2 -12 12 -6 14 -5 15 5 6 7 -7
10 -15 7 -18z m118 -40 c4 -14 3 -29 0 -33 -9 -8 -26 18 -26 41 0 26 19 20 26
-8z m-1266 -40 c-7 -9 -15 -13 -17 -11 -7 7 7 26 19 26 6 0 6 -6 -2 -15z"/>
<path d="M10612 11294 c2 -15 9 -29 16 -32 10 -3 13 4 10 24 -2 15 -9 29 -16
32 -10 3 -13 -4 -10 -24z"/>
<path d="M10805 11129 c-4 -6 -5 -12 -2 -15 2 -3 7 2 10 11 7 17 1 20 -8 4z"/>
<path d="M10328 11116 c-19 -14 -26 -62 -8 -51 14 9 42 65 33 65 -5 0 -16 -7
-25 -14z"/>
<path d="M9810 11045 c0 -5 11 -23 25 -40 13 -16 24 -25 25 -18 0 7 -11 25
-25 40 -13 15 -24 24 -25 18z"/>
<path d="M9785 10980 c3 -5 8 -10 11 -10 2 0 4 5 4 10 0 6 -5 10 -11 10 -5 0
-7 -4 -4 -10z"/>
<path d="M9700 10900 c0 -5 5 -10 11 -10 5 0 7 5 4 10 -3 6 -8 10 -11 10 -2 0
-4 -4 -4 -10z"/>
<path d="M11525 10650 c3 -5 8 -10 11 -10 2 0 4 5 4 10 0 6 -5 10 -11 10 -5 0
-7 -4 -4 -10z"/>
<path d="M11026 10633 c-2 -3 -2 -11 1 -19 3 -8 -3 -24 -12 -34 -18 -20 -17
-20 23 -20 41 0 82 25 82 50 0 12 -84 33 -94 23z"/>
<path d="M9155 10532 c6 -5 21 -13 34 -17 17 -5 22 -4 19 6 -3 8 -18 15 -34
17 -19 2 -25 0 -19 -6z"/>
<path d="M9280 10520 c0 -11 7 -20 15 -20 8 0 15 9 15 20 0 11 -7 20 -15 20
-8 0 -15 -9 -15 -20z"/>
<path d="M10925 10508 c4 -18 9 -42 10 -53 5 -43 25 -77 41 -71 9 3 23 6 32 6
14 1 12 5 -7 20 -16 14 -21 25 -16 37 4 10 9 32 11 49 4 28 1 32 -27 38 -50
10 -52 9 -44 -26z"/>
<path d="M10810 10490 c8 -5 20 -10 25 -10 6 0 3 5 -5 10 -8 5 -19 10 -25 10
-5 0 -3 -5 5 -10z"/>
<path d="M10863 10475 c-3 -9 -3 -18 0 -22 10 -10 37 6 37 22 0 20 -29 20 -37
0z"/>
<path d="M9232 10464 c9 -9 21 -13 27 -9 16 10 3 25 -22 25 -20 0 -20 -1 -5
-16z"/>
<path d="M9200 10419 c0 -18 2 -19 15 -9 8 7 15 16 15 21 0 5 -7 9 -15 9 -9 0
-15 -9 -15 -21z"/>
<path d="M9727 10413 c-4 -3 -7 -11 -7 -17 0 -6 5 -5 12 2 6 6 9 14 7 17 -3 3
-9 2 -12 -2z"/>
<path d="M11400 10370 c-8 -5 -30 -10 -47 -10 -41 0 -43 -15 -3 -29 20 -7 30
-17 30 -30 0 -27 10 -26 38 3 14 16 19 27 12 31 -6 4 -8 15 -5 26 7 21 -2 24
-25 9z"/>
<path d="M9155 10330 c3 -5 10 -10 16 -10 5 0 9 5 9 10 0 6 -7 10 -16 10 -8 0
-12 -4 -9 -10z"/>
<path d="M10993 10290 c-12 -13 -25 -18 -42 -14 -19 4 -22 3 -11 -4 8 -6 43
-7 80 -3 l65 7 -32 17 c-40 21 -40 21 -60 -3z"/>
<path d="M10700 10273 c0 -4 5 -15 10 -23 7 -11 12 -12 21 -3 8 8 6 14 -10 22
-12 7 -21 8 -21 4z"/>
<path d="M10245 10260 c-3 -5 -1 -10 4 -10 6 0 11 5 11 10 0 6 -2 10 -4 10 -3
0 -8 -4 -11 -10z"/>
<path d="M10330 10260 c0 -5 -14 -10 -31 -10 -26 0 -30 -3 -26 -19 4 -15 -3
-20 -37 -27 -22 -4 -47 -7 -53 -7 -7 0 -13 -3 -13 -7 0 -11 27 -20 59 -20 15
0 31 -3 35 -7 3 -4 12 -8 19 -10 19 -4 200 -35 222 -37 11 -2 28 -6 38 -11 10
-4 39 -5 64 -2 38 4 46 2 50 -14 3 -10 19 -25 36 -34 37 -19 41 -19 33 0 -4
12 0 14 20 9 24 -6 24 -5 12 20 -9 21 -17 26 -33 22 -28 -7 -73 23 -54 35 10
6 6 9 -13 9 -14 0 -28 -6 -31 -12 -4 -10 -7 -10 -18 0 -12 11 -10 16 9 32 12
10 22 26 22 36 0 15 -3 14 -25 -6 -21 -19 -27 -21 -40 -10 -11 9 -13 16 -5 24
17 17 11 27 -9 17 -21 -12 -32 -5 -24 15 7 20 -10 17 -53 -6 -20 -12 -39 -18
-43 -14 -3 4 0 9 7 11 6 3 12 9 12 14 0 10 -41 7 -71 -5 -9 -4 -21 0 -29 9
-14 17 -30 20 -30 5z m238 -97 c2 -8 -5 -13 -17 -13 -12 0 -21 6 -21 16 0 18
31 15 38 -3z"/>
<path d="M10650 10254 c0 -12 7 -27 15 -34 20 -17 21 9 0 36 -14 19 -14 19
-15 -2z"/>
<path d="M11338 10253 c7 -3 16 -2 19 1 4 3 -2 6 -13 5 -11 0 -14 -3 -6 -6z"/>
<path d="M9110 10210 c0 -5 5 -10 10 -10 6 0 10 5 10 10 0 6 -4 10 -10 10 -5
0 -10 -4 -10 -10z"/>
<path d="M10252 10050 c-12 -16 -22 -33 -22 -38 0 -5 -7 -15 -15 -22 -25 -21
-17 -33 10 -16 14 9 31 14 37 10 7 -5 9 -2 5 9 -3 9 -1 30 5 47 14 42 6 46
-20 10z"/>
<path d="M11880 10069 c0 -5 5 -7 10 -4 6 3 10 8 10 11 0 2 -4 4 -10 4 -5 0
-10 -5 -10 -11z"/>
<path d="M9139 9971 l-24 -20 23 6 c23 5 38 20 29 29 -2 2 -15 -4 -28 -15z"/>
<path d="M10775 9970 c3 -5 13 -10 21 -10 8 0 14 5 14 10 0 6 -9 10 -21 10
-11 0 -17 -4 -14 -10z"/>
<path d="M9126 9855 c-4 -13 -2 -14 14 -5 23 13 26 20 6 20 -8 0 -16 -7 -20
-15z"/>
<path d="M11720 9785 c0 -8 7 -15 15 -15 8 0 15 7 15 15 0 8 -7 15 -15 15 -8
0 -15 -7 -15 -15z"/>
<path d="M9050 9740 c-8 -5 -10 -10 -5 -10 6 0 17 5 25 10 8 5 11 10 5 10 -5
0 -17 -5 -25 -10z"/>
<path d="M9424 9704 c-17 -14 -17 -15 -1 -10 10 3 25 6 33 6 8 0 14 5 14 10 0
15 -24 12 -46 -6z"/>
<path d="M11990 9680 c9 -32 9 -32 -55 -34 -41 -1 -47 -37 -10 -54 35 -16 45
-15 45 4 0 12 6 15 23 11 12 -3 38 -8 57 -12 l35 -7 -32 27 c-32 26 -32 27
-16 51 14 22 14 27 2 35 -8 5 -24 9 -36 9 -19 0 -21 -3 -13 -30z"/>
<path d="M11760 9692 c0 -5 -14 -12 -30 -16 -32 -6 -32 -14 2 -57 34 -42 88
-25 72 23 -5 13 -9 30 -9 38 0 8 -8 16 -18 18 -9 2 -17 -1 -17 -6z"/>
<path d="M9687 9639 c-12 -7 -17 -23 -17 -59 0 -40 4 -50 20 -55 21 -7 40 0
40 16 0 5 -11 9 -25 9 -29 0 -30 8 -10 57 17 41 17 45 -8 32z"/>
<path d="M11010 9615 c0 -8 7 -15 16 -15 14 0 14 3 4 15 -7 8 -14 15 -16 15
-2 0 -4 -7 -4 -15z"/>
<path d="M11700 9587 c0 -16 32 -47 48 -47 17 0 15 26 -4 44 -19 20 -44 21
-44 3z"/>
<path d="M9190 9560 c0 -5 5 -10 10 -10 6 0 10 5 10 10 0 6 -4 10 -10 10 -5 0
-10 -4 -10 -10z"/>
<path d="M11595 9520 c-3 -5 -15 -10 -26 -10 -10 0 -19 -6 -19 -12 0 -7 -17
-27 -37 -45 -34 -28 -37 -34 -25 -53 7 -11 10 -25 6 -31 -10 -17 17 -39 49
-39 18 0 40 -9 54 -22 13 -12 26 -18 29 -15 4 4 -13 24 -37 46 -47 42 -49 58
-5 41 32 -12 46 -6 46 20 0 10 5 22 10 25 6 3 10 15 10 26 0 10 9 28 20 39 12
12 18 25 15 30 -8 13 -82 13 -90 0z"/>
<path d="M9069 9445 c-25 -14 -57 -65 -39 -65 5 0 12 5 15 10 4 6 18 9 33 8
22 -3 27 2 33 30 7 36 -1 39 -42 17z"/>
<path d="M9186 9348 c-18 -16 -23 -27 -17 -36 6 -11 14 -6 31 18 28 39 21 48
-14 18z"/>
<path d="M9557 9363 c-4 -3 -7 -11 -7 -17 0 -6 5 -5 12 2 6 6 9 14 7 17 -3 3
-9 2 -12 -2z"/>
<path d="M9351 9331 c-13 -3 -31 -17 -40 -30 -15 -24 -15 -24 19 -17 19 3 44
8 55 10 12 1 21 12 23 24 4 23 -10 26 -57 13z"/>
<path d="M11132 9288 c6 -17 67 -47 96 -48 32 0 27 17 -10 40 -37 23 -92 27
-86 8z"/>
<path d="M9535 9199 c-4 -11 -4 -23 -1 -26 8 -9 36 17 36 33 0 22 -28 16 -35
-7z"/>
<path d="M9585 9181 c-3 -6 -1 -11 4 -11 6 0 11 -10 11 -22 0 -16 3 -19 11
-11 8 8 7 17 -4 33 -9 13 -17 17 -22 11z"/>
<path d="M11052 9169 c-15 -23 -15 -29 -2 -29 6 0 10 6 10 14 0 8 5 16 12 18
7 3 8 7 2 11 -5 3 -15 -3 -22 -14z"/>
<path d="M9397 9112 c-20 -22 -21 -32 -6 -32 12 0 38 29 39 43 0 13 -17 7 -33
-11z"/>
<path d="M11157 9040 c5 -20 15 -25 26 -13 8 7 -11 33 -23 33 -5 0 -6 -9 -3
-20z"/>
<path d="M11064 9024 c3 -9 6 -18 6 -20 0 -2 6 -4 14 -4 7 0 19 -7 26 -15 23
-27 30 -4 8 26 -23 31 -65 42 -54 13z"/>
<path d="M11150 8966 c0 -8 9 -18 20 -21 15 -5 19 -12 15 -28 -7 -29 29 -54
51 -36 23 19 16 46 -19 73 -37 29 -67 34 -67 12z"/>
<path d="M11054 8925 c4 -22 16 -49 26 -59 17 -18 20 -18 25 -3 4 8 13 13 21
10 8 -3 14 0 14 6 0 6 -5 11 -11 11 -7 0 -27 17 -47 37 l-35 38 7 -40z"/>
<path d="M10212 8893 c-31 -24 -32 -26 -16 -44 15 -17 19 -17 45 -3 31 15 38
44 16 62 -9 8 -21 4 -45 -15z"/>
<path d="M11025 8890 c3 -5 8 -10 11 -10 2 0 4 5 4 10 0 6 -5 10 -11 10 -5 0
-7 -4 -4 -10z"/>
<path d="M10025 8820 c3 -5 8 -10 11 -10 2 0 4 5 4 10 0 6 -5 10 -11 10 -5 0
-7 -4 -4 -10z"/>
<path d="M9875 8637 c-4 -10 -5 -21 -1 -24 10 -10 18 4 13 24 -4 17 -4 17 -12
0z"/>
<path d="M10700 8606 c0 -8 5 -18 10 -21 6 -3 10 1 10 9 0 8 -4 18 -10 21 -5
3 -10 -1 -10 -9z"/>
<path d="M9921 8594 c0 -11 3 -14 6 -6 3 7 2 16 -1 19 -3 4 -6 -2 -5 -13z"/>
<path d="M10376 8562 c-25 -49 -19 -130 13 -151 l24 -16 -6 42 c-5 28 -3 44 5
49 7 5 4 10 -10 15 -12 5 -22 15 -22 24 0 18 16 20 23 3 4 -10 7 -10 18 -1 11
11 10 15 -3 25 -9 7 -18 20 -20 28 -3 10 -10 5 -22 -18z"/>
<path d="M9998 8575 c-3 -5 -9 -26 -12 -45 l-7 -35 16 29 c14 27 18 75 3 51z"/>
<path d="M10305 8560 c-3 -5 -1 -10 4 -10 6 0 11 5 11 10 0 6 -2 10 -4 10 -3
0 -8 -4 -11 -10z"/>
<path d="M10685 8520 c-10 -16 5 -49 27 -61 29 -15 43 2 27 32 -18 36 -42 49
-54 29z"/>
<path d="M10214 8486 c-8 -34 3 -79 19 -73 7 2 11 19 9 43 -4 49 -19 66 -28
30z"/>
<path d="M10301 8484 c0 -11 3 -14 6 -6 3 7 2 16 -1 19 -3 4 -6 -2 -5 -13z"/>
<path d="M10650 8482 c0 -18 12 -42 21 -42 14 0 10 26 -6 40 -9 8 -15 8 -15 2z"/>
<path d="M10606 8472 c-8 -13 3 -42 15 -42 11 0 11 21 0 39 -5 8 -11 9 -15 3z"/>
</g>
</svg>
